HIERARCHY
ROOT Hips
{
	OFFSET 0.000000 88.474243 0.000000
	CHANNELS 6 Xposition Yposition Zposition Zrotation Yrotation Xrotation 
	JOINT Hips_Spine
	{
		OFFSET 0.000000 0.000000 0.000000
		CHANNELS 3 Zrotation Yrotation Xrotation
		JOINT Spine
		{
			OFFSET 0.005100 8.711998 -0.691000
			CHANNELS 3 Zrotation Yrotation Xrotation
			JOINT Spine1
			{
				OFFSET -0.009200 8.660301 -1.275000
				CHANNELS 3 Zrotation Yrotation Xrotation
				JOINT Spine2
				{
					OFFSET 0.006300 9.852501 -1.857000
					CHANNELS 3 Zrotation Yrotation Xrotation
					JOINT Spine2_Neck
					{
						OFFSET 0.000000 0.000000 0.000000
						CHANNELS 3 Zrotation Yrotation Xrotation
						JOINT Neck
						{
							OFFSET 0.016300 11.420799 -0.263300
							CHANNELS 3 Zrotation Yrotation Xrotation
							End Site #name: Head
							{
								OFFSET -0.019200 9.262405 2.362500
							}
						}
					}
					JOINT Spine2_LeftShoulder
					{
						OFFSET 0.000000 0.000000 0.000000
						CHANNELS 3 Zrotation Yrotation Xrotation
						JOINT LeftShoulder
						{
							OFFSET 5.616900 6.732201 -0.345700
							CHANNELS 3 Zrotation Yrotation Xrotation
							JOINT LeftArm
							{
								OFFSET 10.664888 -0.183372 -2.440700
								CHANNELS 3 Zrotation Yrotation Xrotation
								JOINT LeftForeArm
								{
									OFFSET 27.459126 0.000000 0.000000
									CHANNELS 3 Zrotation Yrotation Xrotation
									End Site #name: LeftHand
									{
										OFFSET 21.306858 0.000000 0.000000
									}
								}
							}
						}
					}
					JOINT Spine2_RightShoulder
					{
						OFFSET 0.000000 0.000000 0.000000
						CHANNELS 3 Zrotation Yrotation Xrotation
						JOINT RightShoulder
						{
							OFFSET -5.580300 6.737503 -0.344400
							CHANNELS 3 Zrotation Yrotation Xrotation
							JOINT RightArm
							{
								OFFSET -10.679335 -0.188484 -2.383900
								CHANNELS 3 Zrotation Yrotation Xrotation
								JOINT RightForeArm
								{
									OFFSET -27.503529 0.000000 0.000000
									CHANNELS 3 Zrotation Yrotation Xrotation
									End Site #name: RightHand
									{
										OFFSET -21.306808 0.000000 0.000000
									}
								}
							}
						}
					}
				}
			}
		}
	}
	JOINT Hips_LeftUpLeg
	{
		OFFSET 0.000000 0.000000 0.000000
		CHANNELS 3 Zrotation Yrotation Xrotation
		JOINT LeftUpLeg
		{
			OFFSET 6.857700 -6.739601 0.312100
			CHANNELS 3 Zrotation Yrotation Xrotation
			JOINT LeftLeg
			{
				OFFSET -0.367590 -34.731552 -4.572400
				CHANNELS 3 Zrotation Yrotation Xrotation
				End Site #name: LeftFoot
				{
					OFFSET 0.367590 -34.656704 -6.067400
				}
			}
		}
	}
	JOINT Hips_RightUpLeg
	{
		OFFSET 0.000000 0.000000 0.000000
		CHANNELS 3 Zrotation Yrotation Xrotation
		JOINT RightUpLeg
		{
			OFFSET -6.876100 -6.733299 0.301000
			CHANNELS 3 Zrotation Yrotation Xrotation
			JOINT RightLeg
			{
				OFFSET 0.347353 -34.795158 -4.515900
				CHANNELS 3 Zrotation Yrotation Xrotation
				End Site #name: RightFoot
				{
					OFFSET -0.347353 -34.589367 -6.070300
				}
			}
		}
	}
}
MOTION
Frames: 10
Frame Time: 0.041667
0.062078 0.447504 -0.051922 -1.072584 0.402573 9.641120 -0.000000 -0.000000 0.000000 -5.406533 -0.050158 -2.443400 0.903202 0.871224 -4.499773 0.000000 0.000000 0.000000 -1.310508 0.637859 -2.709143 0.303237 -6.803305 -2.410250 -3.872522 0.410497 -0.069193 2.061970 -18.770161 -1.194064 -46.976036 -40.562537 -0.579982 -3.854529 -74.839814 4.866996 1.969399 -0.319887 -0.160451 10.813928 -19.467892 -2.680683 57.276813 1.889413 -51.284607 -4.201387 43.625231 4.897775 0.000000 0.000000 0.000000 -7.038166 -5.217253 -36.710419 16.344612 13.786000 39.646511 -0.000000 -0.000000 0.000000 0.019919 -7.740251 -25.553639 2.859178 2.450674 61.223693 
0.347497 0.698399 0.461723 -0.219894 -4.216094 9.507479 -0.000000 -0.000000 0.000000 -4.551709 1.516002 1.810432 0.813301 0.960611 1.879159 0.000000 0.000000 0.000000 -0.460823 -1.460646 -1.261118 -5.905970 -5.182821 -5.309143 -1.043125 -2.083985 1.841077 2.701405 -23.240738 -1.099982 -55.212059 -38.373011 13.089037 -126.656004 -85.424492 126.843541 1.110439 0.125728 -1.328922 11.548798 -20.335392 -1.447430 51.563658 4.325780 -26.373899 0.648527 24.358347 1.436851 0.000000 0.000000 0.000000 -8.584144 0.537322 -33.841380 13.470290 12.127841 37.157562 -0.000000 -0.000000 0.000000 3.454460 -6.908736 -28.143502 1.919110 -9.064757 43.914772 
0.461777 1.374596 1.240882 0.430301 -5.128298 7.608043 -0.000000 -0.000000 0.000000 -2.146979 1.677526 3.837492 0.942955 0.855974 1.994174 0.000000 0.000000 0.000000 -0.544751 -1.867449 -2.028535 -6.711013 -4.840120 -8.211645 -1.106518 -3.164546 1.648925 1.557799 -23.790237 -0.738315 -66.159006 -43.126546 21.088727 -125.481845 -85.387387 126.362634 1.219583 -0.450557 -0.387129 10.176967 -21.372901 -0.654832 59.720205 -8.657183 -30.410967 1.082221 17.361976 2.944482 0.000000 0.000000 0.000000 -5.104351 3.886275 -36.038301 8.307586 9.251338 39.473102 -0.000000 -0.000000 0.000000 -5.775443 -3.963308 -18.909984 0.353844 -9.299993 38.059813 
0.873079 1.947453 2.166106 1.322972 -3.929559 7.568445 -0.000000 -0.000000 0.000000 -1.615573 1.592264 4.447447 0.810539 0.743156 2.238937 0.000000 0.000000 0.000000 -0.429293 -1.791659 -1.959791 -5.833955 -3.724076 -7.731561 -0.745489 -3.627231 1.419633 1.072238 -22.799362 -0.708435 -69.115694 -47.840542 21.279389 -72.483012 -86.308573 73.929927 1.040395 -0.816687 0.290402 9.865724 -21.846153 -0.514373 62.167118 -8.769102 -30.165321 1.366553 8.462964 3.745168 0.000000 0.000000 0.000000 -3.732907 6.046788 -33.506588 4.821029 7.032538 34.370797 -0.000000 -0.000000 0.000000 -8.427961 -0.739541 -14.388730 -1.793590 -9.238341 35.328076 
1.528675 2.259648 3.118875 1.571145 -2.770166 7.361175 -0.000000 -0.000000 0.000000 -1.522823 1.573132 4.783661 0.657710 0.661693 2.664049 0.000000 0.000000 0.000000 -0.176987 -1.421973 -0.828858 -6.120388 -1.711669 -6.550319 -0.126510 -3.605004 1.154585 1.229223 -20.270363 -0.956969 -68.119769 -49.198557 18.239677 -29.926328 -83.705983 32.078884 0.775324 -1.273273 1.297151 8.036536 -21.629535 0.142893 62.580089 -9.660667 -26.261595 2.208047 3.213276 3.825038 0.000000 0.000000 0.000000 -3.412434 7.296975 -28.227401 3.013350 4.399315 29.994477 -0.000000 -0.000000 0.000000 -9.200874 3.699169 -11.424484 -1.676573 -8.295820 32.636896 
2.243390 2.328180 4.124566 0.656453 -1.866249 7.585828 -0.000000 -0.000000 0.000000 -1.292003 1.510847 5.087255 0.539767 0.554985 3.138493 0.000000 0.000000 0.000000 0.013946 -1.233290 0.176763 -6.281500 -0.393823 -5.471235 0.360610 -3.559711 1.096266 1.014142 -18.207865 -1.166969 -65.861085 -51.393225 15.016269 -16.674138 -80.646817 19.374187 0.573005 -1.638550 2.370866 6.163537 -22.246266 0.835520 62.840481 -12.690750 -23.178165 2.806083 -0.329874 3.535176 0.000000 0.000000 0.000000 -3.975548 8.210546 -23.655090 1.780494 1.248520 28.532560 -0.000000 -0.000000 0.000000 -8.385561 6.944468 -12.757014 -0.985520 -7.369284 33.642605 
2.793208 2.291387 5.228440 -0.153704 -1.303515 7.796672 -0.000000 -0.000000 0.000000 -1.376823 1.343894 5.191612 0.454842 0.455590 3.558550 0.000000 0.000000 0.000000 0.168116 -1.202677 0.889317 -6.051117 0.139637 -4.836520 0.669017 -3.499519 1.125387 0.394838 -16.649324 -1.344507 -63.111710 -54.754171 11.684714 -10.709004 -78.247992 13.690586 0.300712 -1.840982 3.377474 4.691518 -23.435092 1.502221 63.638377 -15.855452 -20.019880 2.619160 -2.907616 3.533053 0.000000 0.000000 0.000000 -3.836513 8.572441 -20.839788 0.802860 -0.850866 29.018954 -0.000000 -0.000000 0.000000 -6.938006 8.912649 -15.855064 -0.398234 -6.129960 35.085931 
3.034153 2.225423 6.445865 -0.928502 -0.216101 8.065508 -0.000000 -0.000000 0.000000 -1.680383 1.083737 5.004479 0.417729 0.357722 3.953867 0.000000 0.000000 0.000000 0.188887 -1.225042 1.417173 -5.910348 0.090855 -4.586295 0.823046 -3.475973 1.302780 -0.363344 -15.968946 -1.373664 -61.392977 -58.537328 9.475263 -7.647658 -76.703018 10.741786 -0.012236 -1.954099 4.150589 3.785458 -24.795077 1.908051 64.545442 -17.875714 -16.665937 2.397941 -4.891369 3.433900 0.000000 0.000000 0.000000 -3.873905 8.310602 -19.778623 -0.281414 -2.548797 29.598791 -0.000000 -0.000000 0.000000 -5.547030 10.060327 -18.621446 0.485521 -4.764518 35.064405 
2.940340 2.184796 7.747569 -1.626236 2.094170 8.520756 -0.000000 -0.000000 0.000000 -2.014524 0.706883 4.678142 0.450721 0.264256 4.087048 0.000000 0.000000 0.000000 0.159959 -1.328416 1.815706 -5.378368 -0.388115 -4.336100 0.859193 -3.514525 1.555140 -1.138778 -16.138855 -1.265519 -61.712895 -62.170603 9.334467 -6.217361 -76.162826 9.307342 -0.283767 -1.966726 4.563987 3.103244 -25.930796 2.096285 65.228838 -19.001947 -12.607032 2.354038 -5.060940 3.274633 0.000000 0.000000 0.000000 -4.296173 6.856243 -19.954387 -1.093838 -3.948034 30.181706 -0.000000 -0.000000 0.000000 -4.236668 10.934918 -20.925849 1.335831 -3.433580 33.805346 
2.531541 2.210078 9.084946 -2.015759 2.975866 8.593840 -0.000000 -0.000000 0.000000 -2.286513 0.415279 4.327058 0.507711 0.231743 4.056127 0.000000 0.000000 0.000000 0.141611 -1.450753 2.128158 -4.690243 -1.055560 -4.066865 0.888610 -3.493385 1.857943 -1.632734 -16.368650 -1.069267 -61.209438 -64.674817 8.259179 -4.931206 -75.141881 8.120702 -0.509220 -1.860205 4.794514 2.663852 -26.678920 2.173380 65.135814 -19.152244 -9.056349 2.363388 -3.985675 3.035602 0.000000 0.000000 0.000000 -4.452506 5.134216 -19.998230 -1.561673 -4.898953 30.783790 -0.000000 -0.000000 -0.000000 -3.168104 11.584976 -22.542247 1.717405 -2.530894 33.343180 
